<svg width="382pt" height="623pt" viewBox="0.00 0.00 382.00 623.00" xmlns="http://www.w3.org/2000/svg" xmlns:xlink="http://www.w3.org/1999/xlink">
<g id="graph0" class="graph" transform="scale(1 1) rotate(0) translate(4 618.8)">
<title>SystemArchitecture</title>
<polygon fill="white" stroke="none" points="-4,4 -4,-618.8 377.88,-618.8 377.88,4 -4,4"/>
<g id="clust1" class="cluster">
<title>cluster_external</title>
<path fill="none" stroke="#7f7f7f" d="M20,-532.4C20,-532.4 248,-532.4 248,-532.4 254,-532.4 260,-538.4 260,-544.4 260,-544.4 260,-594.8 260,-594.8 260,-600.8 254,-606.8 248,-606.8 248,-606.8 20,-606.8 20,-606.8 14,-606.8 8,-600.8 8,-594.8 8,-594.8 8,-544.4 8,-544.4 8,-538.4 14,-532.4 20,-532.4"/>
<text xml:space="preserve" text-anchor="middle" x="134" y="-592" font-family="Times,serif" font-size="12.00">外部架构（微信侧）</text>
</g>
<g id="clust3" class="cluster">
<title>cluster_internal</title>
<path fill="none" stroke="#7f7f7f" d="M68,-8C68,-8 332,-8 332,-8 338,-8 344,-14 344,-20 344,-20 344,-490.4 344,-490.4 344,-496.4 338,-502.4 332,-502.4 332,-502.4 68,-502.4 68,-502.4 62,-502.4 56,-496.4 56,-490.4 56,-490.4 56,-20 56,-20 56,-14 62,-8 68,-8"/>
<text xml:space="preserve" text-anchor="middle" x="200" y="-487.6" font-family="Times,serif" font-size="12.00">内部架构（Django）</text>
</g>
<!-- user -->
<g id="node1" class="node">
<title>user</title>
<polygon fill="none" stroke="black" points="114.25,-576.4 15.75,-576.4 15.75,-540.4 114.25,-540.4 114.25,-576.4"/>
<text xml:space="preserve" text-anchor="middle" x="65" y="-555.1" font-family="Times,serif" font-size="11.00">用户（微信聊天窗口）</text>
</g>
<!-- wx -->
<g id="node2" class="node">
<title>wx</title>
<polygon fill="none" stroke="black" points="251.62,-576.4 194.38,-576.4 194.38,-540.4 251.62,-540.4 251.62,-576.4"/>
<text xml:space="preserve" text-anchor="middle" x="223" y="-555.1" font-family="Times,serif" font-size="11.00">微信服务器</text>
</g>
<!-- user&#45;&gt;wx -->
<g id="edge1" class="edge">
<title>user-&gt;wx</title>
<path fill="none" stroke="black" d="M114.56,-558.4C136.6,-558.4 162.21,-558.4 183.01,-558.4"/>
<polygon fill="black" stroke="black" points="182.81,-561.9 192.81,-558.4 182.81,-554.9 182.81,-561.9"/>
<text xml:space="preserve" text-anchor="middle" x="154.31" y="-564.4" font-family="Times,serif" font-size="10.00">发送文本/图片消息</text>
</g>
<!-- wx&#45;&gt;user -->
<g id="edge11" class="edge">
<title>wx-&gt;user</title>
<path fill="none" stroke="black" d="M194.13,-546.74C189.65,-545.36 185.03,-544.17 180.56,-543.4 162.9,-540.37 143.62,-541.23 125.96,-543.66"/>
<polygon fill="black" stroke="black" points="125.45,-540.2 116.12,-545.22 126.54,-547.11 125.45,-540.2"/>
<text xml:space="preserve" text-anchor="middle" x="154.31" y="-546.4" font-family="Times,serif" font-size="10.00">下发公众号回复</text>
</g>
<!-- entry -->
<g id="node3" class="node">
<title>entry</title>
<polygon fill="none" stroke="black" points="294.08,-472 151.92,-472 151.92,-436 294.08,-436 294.08,-472"/>
<text xml:space="preserve" text-anchor="middle" x="223" y="-457.3" font-family="Times,serif" font-size="11.00">/wechat/ 入口</text>
<text xml:space="preserve" text-anchor="middle" x="223" y="-444.1" font-family="Times,serif" font-size="11.00">main/views.py:wechat_main</text>
</g>
<!-- wx&#45;&gt;entry -->
<g id="edge2" class="edge">
<title>wx-&gt;entry</title>
<path fill="none" stroke="black" d="M223,-540.03C223,-524.66 223,-501.92 223,-483.82"/>
<polygon fill="black" stroke="black" points="226.5,-483.97 223,-473.97 219.5,-483.97 226.5,-483.97"/>
<text xml:space="preserve" text-anchor="middle" x="256.34" y="-513.4" font-family="Times,serif" font-size="10.00">POST XML 回调</text>
</g>
<!-- dist -->
<g id="node4" class="node">
<title>dist</title>
<polygon fill="none" stroke="black" points="275.9,-388 170.1,-388 170.1,-352 275.9,-352 275.9,-388"/>
<text xml:space="preserve" text-anchor="middle" x="223" y="-373.3" font-family="Times,serif" font-size="11.00">消息分发</text>
<text xml:space="preserve" text-anchor="middle" x="223" y="-360.1" font-family="Times,serif" font-size="11.00">wechat_distributor()</text>
</g>
<!-- entry&#45;&gt;dist -->
<g id="edge3" class="edge">
<title>entry-&gt;dist</title>
<path fill="none" stroke="black" d="M223,-435.61C223,-425.17 223,-411.64 223,-399.66"/>
<polygon fill="black" stroke="black" points="226.5,-399.88 223,-389.88 219.5,-399.88 226.5,-399.88"/>
<text xml:space="preserve" text-anchor="middle" x="250.92" y="-409" font-family="Times,serif" font-size="10.00">解析 MsgType</text>
</g>
<!-- lexer -->
<g id="node5" class="node">
<title>lexer</title>
<polygon fill="none" stroke="black" points="260.96,-304 109.04,-304 109.04,-268 260.96,-268 260.96,-304"/>
<text xml:space="preserve" text-anchor="middle" x="185" y="-289.3" font-family="Times,serif" font-size="11.00">命令解析</text>
<text xml:space="preserve" text-anchor="middle" x="185" y="-276.1" font-family="Times,serif" font-size="11.00">main/lexer.py:parse_command</text>
</g>
<!-- dist&#45;&gt;lexer -->
<g id="edge4" class="edge">
<title>dist-&gt;lexer</title>
<path fill="none" stroke="black" d="M214.94,-351.61C209.95,-340.85 203.44,-326.79 197.76,-314.54"/>
<polygon fill="black" stroke="black" points="201.06,-313.34 193.68,-305.74 194.71,-316.28 201.06,-313.34"/>
<text xml:space="preserve" text-anchor="middle" x="213.77" y="-325" font-family="Times,serif" font-size="10.00">text</text>
</g>
<!-- reply -->
<g id="node9" class="node">
<title>reply</title>
<polygon fill="none" stroke="black" points="336.2,-136 225.8,-136 225.8,-100 336.2,-100 336.2,-136"/>
<text xml:space="preserve" text-anchor="middle" x="281" y="-121.3" font-family="Times,serif" font-size="11.00">XML 回复构造</text>
<text xml:space="preserve" text-anchor="middle" x="281" y="-108.1" font-family="Times,serif" font-size="11.00">main/wechat_utils.py</text>
</g>
<!-- dist&#45;&gt;reply -->
<g id="edge9" class="edge">
<title>dist-&gt;reply</title>
<path fill="none" stroke="black" d="M239.87,-351.57C250.58,-339.32 263.59,-321.97 270,-304 279.96,-276.09 281.28,-192.58 281.24,-147.92"/>
<polygon fill="black" stroke="black" points="284.74,-147.93 281.2,-137.95 277.74,-147.96 284.74,-147.93"/>
<text xml:space="preserve" text-anchor="middle" x="300.07" y="-241" font-family="Times,serif" font-size="10.00">image/兜底</text>
</g>
<!-- service -->
<g id="node6" class="node">
<title>service</title>
<polygon fill="none" stroke="black" points="261.79,-220 106.21,-220 106.21,-184 261.79,-184 261.79,-220"/>
<text xml:space="preserve" text-anchor="middle" x="184" y="-205.3" font-family="Times,serif" font-size="11.00">业务服务</text>
<text xml:space="preserve" text-anchor="middle" x="184" y="-192.1" font-family="Times,serif" font-size="11.00">main/services/offer_services.py</text>
</g>
<!-- lexer&#45;&gt;service -->
<g id="edge5" class="edge">
<title>lexer-&gt;service</title>
<path fill="none" stroke="black" d="M184.79,-267.61C184.66,-257.17 184.5,-243.64 184.35,-231.66"/>
<polygon fill="black" stroke="black" points="187.85,-231.84 184.23,-221.88 180.85,-231.92 187.85,-231.84"/>
<text xml:space="preserve" text-anchor="middle" x="197.61" y="-241" font-family="Times,serif" font-size="10.00">tokens</text>
</g>
<!-- model -->
<g id="node7" class="node">
<title>model</title>
<polygon fill="none" stroke="black" points="208.15,-136 63.85,-136 63.85,-100 208.15,-100 208.15,-136"/>
<text xml:space="preserve" text-anchor="middle" x="136" y="-121.3" font-family="Times,serif" font-size="11.00">数据模型</text>
<text xml:space="preserve" text-anchor="middle" x="136" y="-108.1" font-family="Times,serif" font-size="11.00">main/models.py (Offer/User)</text>
</g>
<!-- service&#45;&gt;model -->
<g id="edge6" class="edge">
<title>service-&gt;model</title>
<path fill="none" stroke="black" d="M171.16,-183.51C167.31,-178.01 163.2,-171.85 159.72,-166 155.97,-159.71 152.25,-152.76 148.9,-146.17"/>
<polygon fill="black" stroke="black" points="152.25,-145.04 144.68,-137.63 145.98,-148.15 152.25,-145.04"/>
<text xml:space="preserve" text-anchor="middle" x="179.86" y="-157" font-family="Times,serif" font-size="10.00">ORM 调用</text>
</g>
<!-- service&#45;&gt;reply -->
<g id="edge8" class="edge">
<title>service-&gt;reply</title>
<path fill="none" stroke="black" d="M204.57,-183.61C218.33,-171.98 236.64,-156.5 251.89,-143.61"/>
<polygon fill="black" stroke="black" points="253.93,-146.47 259.3,-137.34 249.41,-141.13 253.93,-146.47"/>
<text xml:space="preserve" text-anchor="middle" x="253.31" y="-157" font-family="Times,serif" font-size="10.00">结果文本</text>
</g>
<!-- db -->
<g id="node8" class="node">
<title>db</title>
<polygon fill="none" stroke="black" points="163,-52 109,-52 109,-16 163,-16 163,-52"/>
<text xml:space="preserve" text-anchor="middle" x="136" y="-30.7" font-family="Times,serif" font-size="11.00">SQLite</text>
</g>
<!-- model&#45;&gt;db -->
<g id="edge7" class="edge">
<title>model-&gt;db</title>
<path fill="none" stroke="black" d="M136,-99.61C136,-89.17 136,-75.64 136,-63.66"/>
<polygon fill="black" stroke="black" points="139.5,-63.88 136,-53.88 132.5,-63.88 139.5,-63.88"/>
<text xml:space="preserve" text-anchor="middle" x="143.5" y="-73" font-family="Times,serif" font-size="10.00">读写</text>
</g>
<!-- reply&#45;&gt;wx -->
<g id="edge10" class="edge">
<title>reply-&gt;wx</title>
<path fill="none" stroke="black" d="M289.38,-136.22C299.91,-158.91 317.41,-200.35 324,-238 344.34,-354.11 332.5,-388.27 303,-502.4 300.56,-511.84 300.77,-515.39 294,-522.4 285.16,-531.56 273.42,-538.67 262.03,-544.02"/>
<polygon fill="black" stroke="black" points="260.96,-540.67 253.16,-547.85 263.73,-547.1 260.96,-540.67"/>
<text xml:space="preserve" text-anchor="middle" x="354.01" y="-325" font-family="Times,serif" font-size="10.00">返回 XML</text>
</g>
</g>
</svg>